<svg id="Layer_1" data-name="Layer 1" xmlns="http://www.w3.org/2000/svg" viewBox="0 0 612 608.28"><defs><style>.cls-1{fill:#d42626;}</style></defs><title>facebook-icon</title><path class="cls-1" d="M306,90C137,90,0,227,0,396,0,548.73,111.9,675.33,258.19,698.28V484.45h-77.7V396h77.7V328.58c0-76.69,45.68-119,115.58-119,31.39,0,64.12,5.25,68.09,5.91l.41.07v75.3H403.68c-33.26,0-46.5,18.06-49.28,38.79a67.24,67.24,0,0,0-.59,9V396h84.87l-13.57,88.45h-71.3V698.28C500.1,675.33,612,548.73,612,396,612,227,475,90,306,90Z" transform="translate(0 -90)"/></svg>