<svg id="Layer_1" data-name="Layer 1" xmlns="http://www.w3.org/2000/svg" viewBox="0 0 98 98"><defs><style>.cls-1{fill:#d62626;}.cls-2{fill:#d42626;}</style></defs><title>instagram-icon</title><path class="cls-1" d="M83,15H45A30.09,30.09,0,0,0,15,45V83a30.09,30.09,0,0,0,30,30H83a30.09,30.09,0,0,0,30-30V45A30.09,30.09,0,0,0,83,15Zm22,68a22,22,0,0,1-22,22H45A22,22,0,0,1,23,83V45A22,22,0,0,1,45,23H83a22,22,0,0,1,22,22Z" transform="translate(-15 -15)"/><path class="cls-2" d="M90.14,32a5.73,5.73,0,1,0,5.73,5.73A5.74,5.74,0,0,0,90.14,32Z" transform="translate(-15 -15)"/><path class="cls-2" d="M64.31,38.47h0A25.68,25.68,0,1,0,90,64.14,25.68,25.68,0,0,0,64.27,38.47Zm0,43.36A17.69,17.69,0,0,1,46.6,64.16v0A17.68,17.68,0,1,1,64.29,81.83Z" transform="translate(-15 -15)"/></svg>