<svg id="Layer_1" data-name="Layer 1" xmlns="http://www.w3.org/2000/svg" viewBox="0 0 32 32"><defs><style>.cls-1{fill:#d42626;}</style></defs><title>twitter-icon</title><path class="cls-1" d="M16,0A16,16,0,1,0,32,16,16,16,0,0,0,16,0Zm8.74,10.67a8.47,8.47,0,0,1-.89,1c-.71.71-.75.79-.75,1.38a13.08,13.08,0,0,1-.87,3.86,11.14,11.14,0,0,1-4.23,5,10.72,10.72,0,0,1-8.35.95A9.53,9.53,0,0,1,7.2,21.71a3.62,3.62,0,0,1,1-.1,7.22,7.22,0,0,0,3.41-.95l.69-.42L11.55,20a3.81,3.81,0,0,1-2.38-2.11c-.08-.27-.05-.28.66-.28h.74l-.62-.3A4.1,4.1,0,0,1,8.2,15.63a4.91,4.91,0,0,1-.46-1.73s.3,0,.6.14c.88.32,1,.25.49-.29A3.7,3.7,0,0,1,8,9.94l.21-.62.84.84a10.34,10.34,0,0,0,6.06,3l.63.08,0-.63a3.69,3.69,0,0,1,2.49-3.7,4.27,4.27,0,0,1,2.22-.06,5.19,5.19,0,0,1,1.08.57l.63.43.68-.22A7.23,7.23,0,0,0,24,9.17c.21-.12.4-.18.4-.14a3.84,3.84,0,0,1-.86,1.38c-.54.57-.39.62.7.24C24.85,10.43,24.87,10.43,24.74,10.67Z"/></svg>